<?xml version="1.0" encoding="utf-8"?>
<!-- Generator: Adobe Illustrator 15.0.0, SVG Export Plug-In . SVG Version: 6.00 Build 0)  -->
<!DOCTYPE svg PUBLIC "-//W3C//DTD SVG 1.1//EN" "http://www.w3.org/Graphics/SVG/1.1/DTD/svg11.dtd">
<svg version="1.1" id="Layer_1" xmlns="http://www.w3.org/2000/svg" xmlns:xlink="http://www.w3.org/1999/xlink" x="0px" y="0px"
     width="100px" height="100px" viewBox="0 0 100 100" enable-background="new 0 0 100 100" xml:space="preserve">
<polygon fill="#F89D4F" points="6.698,24.755 50,-0.245 93.301,24.755 93.301,74.755 50,99.755 6.698,74.755 "/>
<polygon fill="none" stroke="#FFFFFF" stroke-width="3" stroke-miterlimit="10" points="49.999,31.813 58.666,46.823 67.332,61.833 
	49.999,61.833 32.668,61.833 41.333,46.823 "/>
<g>
	<path fill="#FFFFFF" d="M47.955,55.626c0-0.283,0.052-0.549,0.155-0.801s0.248-0.471,0.434-0.656s0.404-0.33,0.655-0.434
		c0.252-0.104,0.52-0.156,0.801-0.156s0.549,0.053,0.801,0.156c0.251,0.104,0.47,0.248,0.655,0.434s0.33,0.404,0.434,0.656
		s0.155,0.518,0.155,0.801c0,0.281-0.052,0.547-0.155,0.799s-0.248,0.471-0.434,0.656s-0.404,0.33-0.655,0.434
		c-0.252,0.104-0.52,0.156-0.801,0.156s-0.549-0.053-0.801-0.156c-0.251-0.104-0.47-0.248-0.655-0.434s-0.33-0.404-0.434-0.656
		S47.955,55.907,47.955,55.626z M51.668,52.335h-3.335V41.797h3.335V52.335z"/>
</g>
</svg>
