<?xml version="1.0" encoding="utf-8"?>
<!-- Generator: Adobe Illustrator 15.0.0, SVG Export Plug-In . SVG Version: 6.00 Build 0)  -->
<!DOCTYPE svg PUBLIC "-//W3C//DTD SVG 1.1//EN" "http://www.w3.org/Graphics/SVG/1.1/DTD/svg11.dtd">
<svg version="1.1" id="Layer_1" xmlns="http://www.w3.org/2000/svg" xmlns:xlink="http://www.w3.org/1999/xlink" x="0px" y="0px"
     width="50px" height="50px" viewBox="0 0 50 50" enable-background="new 0 0 50 50" xml:space="preserve">
<g>
	<path fill="#A8ACCB" d="M41.227,23.687h-1.753v-8.77h-0.021c0.005-0.15,0.021-0.294,0.021-0.441C39.476,6.481,32.993,0,24.999,0
		C17.012,0,10.53,6.481,10.53,14.475c0,0.147,0.014,0.292,0.018,0.441H10.53v8.77H8.772c-1.453,0-2.63,1.177-2.63,2.632v21.051
		c0,1.454,1.176,2.631,2.63,2.631h32.455c1.453,0,2.631-1.177,2.631-2.631V26.318C43.86,24.864,42.682,23.687,41.227,23.687z
		 M32.456,14.917v8.77H17.543v-8.77h0.026c-0.008-0.15-0.026-0.294-0.026-0.441c0-4.118,3.338-7.457,7.456-7.457
		c4.116,0,7.458,3.338,7.458,7.457c0,0.147-0.011,0.292-0.021,0.441H32.456z"/>
</g>
</svg>
