<?xml version="1.0" encoding="utf-8"?>
<!-- Generator: Adobe Illustrator 15.0.0, SVG Export Plug-In . SVG Version: 6.00 Build 0)  -->
<!DOCTYPE svg PUBLIC "-//W3C//DTD SVG 1.1//EN" "http://www.w3.org/Graphics/SVG/1.1/DTD/svg11.dtd">
<svg version="1.1" id="Layer_1" xmlns="http://www.w3.org/2000/svg" xmlns:xlink="http://www.w3.org/1999/xlink" x="0px" y="0px"
     width="50px" height="50px" viewBox="0 0 50 50" enable-background="new 0 0 50 50" xml:space="preserve">
<g>
	<path fill="#B1BC38" d="M26.307,10.828V9.204h1.16c0.721,0,1.305-0.585,1.305-1.306s-0.586-1.305-1.305-1.305h-4.934
		c-0.721,0-1.305,0.584-1.305,1.305c0,0.722,0.584,1.306,1.305,1.306h1.16v1.623C15.307,11.495,8.682,18.53,8.682,27.088
		c0,8.998,7.32,16.318,16.318,16.318s16.318-7.32,16.318-16.318C41.318,18.53,34.695,11.496,26.307,10.828z M25,40.796
		c-7.557,0-13.707-6.149-13.707-13.708c0-7.558,6.15-13.706,13.707-13.706c7.561,0,13.709,6.149,13.709,13.706
		C38.709,34.646,32.561,40.796,25,40.796z"/>
	<path fill="#B1BC38" d="M34.055,12.221c0.736,0.449,1.447,0.96,2.111,1.517c0.246,0.204,0.543,0.304,0.838,0.304
		c0.375,0,0.744-0.159,1.002-0.468c0.463-0.553,0.389-1.376-0.164-1.839c-0.764-0.64-1.58-1.226-2.428-1.743
		c-0.615-0.375-1.418-0.181-1.795,0.435C33.244,11.041,33.439,11.845,34.055,12.221z"/>
	<path fill="#B1BC38" d="M30.889,18.506c-0.596-0.408-1.408-0.257-1.814,0.338l-5.15,7.507c-0.408,0.594-0.258,1.407,0.338,1.814
		c0.227,0.155,0.482,0.229,0.738,0.229c0.416,0,0.824-0.198,1.076-0.567l5.15-7.506C31.635,19.727,31.482,18.913,30.889,18.506z"/>
</g>
</svg>
