<?xml version="1.0" encoding="utf-8"?>
<!-- Generator: Adobe Illustrator 15.0.0, SVG Export Plug-In . SVG Version: 6.00 Build 0)  -->
<!DOCTYPE svg PUBLIC "-//W3C//DTD SVG 1.1//EN" "http://www.w3.org/Graphics/SVG/1.1/DTD/svg11.dtd">
<svg version="1.1" id="Layer_1" xmlns="http://www.w3.org/2000/svg" xmlns:xlink="http://www.w3.org/1999/xlink" x="0px" y="0px"
     width="50px" height="50px" viewBox="0 0 50 50" enable-background="new 0 0 50 50" xml:space="preserve">
<g>
	<polygon fill="#B4B9D5" points="41.631,25.109 27.283,25.109 27.283,17.827 41.631,17.827 41.631,12.392 50,21.413 41.631,30.544 	
		"/>
	<polygon fill="#B4B9D5" points="19.783,50 1.632,41.304 1.632,1.63 19.783,10.218 	"/>
	<g>
		<path fill="#B4B9D5" d="M33.805,42.936H1.632C0.761,42.936,0,42.174,0,41.304V1.63C0,0.76,0.761,0,1.632,0h32.173
			c0.871,0,1.631,0.76,1.631,1.63v10c0,0.87-0.76,1.631-1.631,1.631c-0.869,0-1.629-0.761-1.629-1.631V3.15H3.262v36.631h28.914
			v-8.367c0-0.87,0.76-1.631,1.629-1.631c0.871,0,1.631,0.761,1.631,1.631v9.89C35.326,42.174,34.676,42.936,33.805,42.936z"/>
	</g>
</g>
</svg>
