<?xml version="1.0" encoding="utf-8"?>
<!-- Generator: Adobe Illustrator 15.0.0, SVG Export Plug-In . SVG Version: 6.00 Build 0)  -->
<!DOCTYPE svg PUBLIC "-//W3C//DTD SVG 1.1//EN" "http://www.w3.org/Graphics/SVG/1.1/DTD/svg11.dtd">
<svg version="1.1" id="Layer_1" xmlns="http://www.w3.org/2000/svg" xmlns:xlink="http://www.w3.org/1999/xlink" x="0px" y="0px"
     width="50px" height="50px" viewBox="0 0 50 50" enable-background="new 0 0 50 50" xml:space="preserve">
<path fill="#FFFFFF" d="M49.885,22.61c-0.157-1.145-1.041-2.083-2.188-2.237c-1.405-0.156-4.27-0.522-4.27-0.522
	c-1.25-0.311-2.188-1.405-2.188-2.758c0-0.52,0.156-1.042,0.47-1.458c0-0.052,2.604-3.435,2.604-3.435
	c0.728-0.884,0.676-2.187-0.053-3.071c-0.99-1.25-2.134-2.396-3.387-3.385c-0.883-0.729-2.186-0.78-3.067-0.052
	c-1.147,0.885-3.386,2.605-3.386,2.605c-0.468,0.258-0.988,0.466-1.561,0.466c-1.354,0-2.448-0.988-2.709-2.291l-0.521-4.164
	c-0.154-1.146-1.092-2.03-2.236-2.185c-1.614-0.157-3.228-0.157-4.79,0c-1.145,0.155-2.082,1.039-2.237,2.185l-0.52,4.164
	c-0.209,1.302-1.354,2.291-2.709,2.291c-0.623,0-1.196-0.208-1.664-0.52l-3.281-2.552c-0.884-0.728-2.187-0.676-3.069,0.052
	c-1.251,0.99-2.397,2.134-3.386,3.385c-0.78,0.885-0.78,2.187-0.052,3.071c0.834,1.093,2.498,3.279,2.498,3.279
	c0.365,0.469,0.574,1.042,0.574,1.613c0,1.407-1.041,2.551-2.396,2.758l-4.06,0.522c-1.146,0.155-2.081,1.092-2.187,2.237
	c-0.155,1.614-0.155,3.228,0,4.79c0.157,1.146,1.041,2.083,2.187,2.239l4.06,0.519c1.354,0.156,2.396,1.302,2.396,2.709
	c0,0.622-0.209,1.196-0.574,1.665l-2.498,3.279c-0.729,0.887-0.678,2.188,0.052,3.071c0.989,1.249,2.135,2.396,3.386,3.385
	c0.467,0.365,0.987,0.571,1.561,0.571c0.519,0,1.093-0.155,1.508-0.52l3.281-2.552c0.468-0.312,1.041-0.521,1.664-0.521
	c1.354,0,2.5,0.99,2.709,2.293c0,0.052,0.52,4.165,0.52,4.165c0.155,1.145,1.093,2.027,2.237,2.186
	c0.781,0.053,1.613,0.104,2.396,0.104c0.78,0,1.612-0.052,2.394-0.104c1.145-0.156,2.082-1.041,2.236-2.186l0.521-4.165
	c0.261-1.303,1.354-2.293,2.709-2.293c0.572,0,1.146,0.159,1.561,0.471l3.386,2.603c0.415,0.364,0.986,0.52,1.507,0.52
	c0.575,0,1.095-0.155,1.561-0.571c1.253-0.989,2.396-2.135,3.387-3.385c0.728-0.885,0.78-2.186,0.053-3.071
	c-0.887-1.146-2.604-3.383-2.604-3.435c-0.313-0.417-0.47-0.938-0.47-1.51c0-1.302,0.937-2.447,2.188-2.709
	c0,0,2.864-0.364,4.27-0.519c1.146-0.156,2.029-1.095,2.188-2.239C50.038,25.785,50.038,24.172,49.885,22.61z M25.001,33.489
	c-4.686,0-8.484-3.799-8.484-8.485c0-4.685,3.8-8.485,8.484-8.485c4.684,0,8.484,3.8,8.484,8.485
	C33.485,29.69,29.685,33.489,25.001,33.489z"/>
</svg>
