<?xml version="1.0" encoding="utf-8"?>
<!-- Generator: Adobe Illustrator 15.0.0, SVG Export Plug-In . SVG Version: 6.00 Build 0)  -->
<!DOCTYPE svg PUBLIC "-//W3C//DTD SVG 1.1//EN" "http://www.w3.org/Graphics/SVG/1.1/DTD/svg11.dtd">
<svg version="1.1" id="Layer_1" xmlns="http://www.w3.org/2000/svg" xmlns:xlink="http://www.w3.org/1999/xlink" x="0px" y="0px"
     width="50px" height="50px" viewBox="0 0 50 50" enable-background="new 0 0 50 50" xml:space="preserve">
<g>
	<g>
		<path fill="#9799B2" d="M47.521,23.47c-0.847-0.845-2.216-0.845-3.062,0L21.621,46.306c-0.843,0.845-0.843,2.216,0,3.061l0,0
			c0.847,0.846,2.216,0.846,3.063,0L47.521,26.53C48.363,25.686,48.363,24.315,47.521,23.47L47.521,23.47z"/>
		<path fill="#9799B2" d="M47.521,26.53c-1.672-1.531-2.025-2.342,0-3.06L24.684,0.633c-0.847-0.845-2.216-0.845-3.063,0l0,0
			c-0.843,0.845-0.843,2.215,0,3.061L44.458,26.53C45.305,27.375,46.674,27.375,47.521,26.53L47.521,26.53z"/>
	</g>
	<path fill="#9799B2" d="M46.217,25.001c0-1.196-0.969-2.165-2.166-2.166l-40.04-0.001c-1.193,0.001-2.163,0.97-2.164,2.164l0,0
		c0.001,1.196,0.969,2.165,2.166,2.167h40.04C45.248,27.164,46.217,26.194,46.217,25.001L46.217,25.001z"/>
</g>
</svg>
