<?xml version="1.0" encoding="utf-8"?>
<!-- Generator: Adobe Illustrator 15.0.0, SVG Export Plug-In . SVG Version: 6.00 Build 0)  -->
<!DOCTYPE svg PUBLIC "-//W3C//DTD SVG 1.1//EN" "http://www.w3.org/Graphics/SVG/1.1/DTD/svg11.dtd">
<svg version="1.1" id="Layer_1" xmlns="http://www.w3.org/2000/svg" xmlns:xlink="http://www.w3.org/1999/xlink" x="0px" y="0px"
     width="50px" height="50px" viewBox="0 0 50 50" enable-background="new 0 0 50 50" xml:space="preserve">
<g>
	<path fill="#383850" d="M7.405,48.729L48.73,7.405c1.691-1.694,1.691-4.44,0-6.132c-1.699-1.694-4.433-1.694-6.133,0L1.273,42.596
		c-1.697,1.691-1.697,4.439,0,6.133C2.966,50.421,5.709,50.421,7.405,48.729z"/>
	<path fill="#383850" d="M48.73,42.596L7.405,1.273c-1.696-1.694-4.432-1.694-6.132,0c-1.697,1.7-1.697,4.438,0,6.132l41.325,41.322
		c1.693,1.693,4.435,1.693,6.135,0C50.423,47.035,50.423,44.287,48.73,42.596z"/>
</g>
</svg>
