<?xml version="1.0" encoding="utf-8"?>
<!-- Generator: Adobe Illustrator 15.0.0, SVG Export Plug-In . SVG Version: 6.00 Build 0)  -->
<!DOCTYPE svg PUBLIC "-//W3C//DTD SVG 1.1//EN" "http://www.w3.org/Graphics/SVG/1.1/DTD/svg11.dtd">
<svg version="1.1" id="Layer_1" xmlns="http://www.w3.org/2000/svg" xmlns:xlink="http://www.w3.org/1999/xlink" x="0px" y="0px"
     width="50px" height="50px" viewBox="0 0 50 50" enable-background="new 0 0 50 50" xml:space="preserve">
<g>
	<path fill="#F4F4FA" d="M21.825,11.569c-1.752,1.754-1.752,4.596,0,6.35l20.511,20.512c1.754,1.752,4.596,1.752,6.35-0.001l0,0
		c1.752-1.752,1.752-4.595,0-6.349L28.174,11.569C26.422,9.817,23.58,9.817,21.825,11.569L21.825,11.569z"/>
	<path fill="#F4F4FA" d="M28.174,11.569c-1.752-1.752-4.594-1.752-6.349,0L1.314,32.081c-1.751,1.754-1.751,4.597,0,6.35l0,0
		c1.754,1.752,4.598,1.752,6.35,0l20.51-20.512C29.927,16.165,29.927,13.323,28.174,11.569L28.174,11.569z"/>
</g>
</svg>
