<?xml version="1.0" encoding="utf-8"?>
<!-- Generator: Adobe Illustrator 15.0.0, SVG Export Plug-In . SVG Version: 6.00 Build 0)  -->
<!DOCTYPE svg PUBLIC "-//W3C//DTD SVG 1.1//EN" "http://www.w3.org/Graphics/SVG/1.1/DTD/svg11.dtd">
<svg version="1.1" id="Layer_1" xmlns="http://www.w3.org/2000/svg" xmlns:xlink="http://www.w3.org/1999/xlink" x="0px" y="0px"
     width="50px" height="50px" viewBox="6.583 0 50 50" enable-background="new 6.583 0 50 50" xml:space="preserve">
<g>
	<path fill="#9799B2" d="M23.057,35.44c0,1.162-0.938,2.101-2.101,2.101h-7.373c-1.162,0-2.101-0.938-2.101-2.101
		s0.938-2.1,2.101-2.1h7.373C22.118,33.385,23.057,34.323,23.057,35.44z M51.08,29.452c-0.806-0.805-2.146-0.805-2.949,0
		l-2.816,2.815V12.771c0-1.162-0.938-2.1-2.1-2.1c-1.163,0-2.101,0.938-2.101,2.1v19.451l-2.816-2.814
		c-0.805-0.806-2.146-0.806-2.949,0c-0.805,0.804-0.805,2.145,0,2.949l6.347,6.346l0,0c0.089,0.089,0.223,0.134,0.312,0.224
		c0.135,0.089,0.224,0.179,0.358,0.224c0.269,0.089,0.536,0.178,0.804,0.178l0,0l0,0c0.268,0,0.537-0.044,0.805-0.178
		c0.135-0.045,0.225-0.135,0.357-0.224c0.089-0.09,0.224-0.135,0.313-0.224l0,0l6.436-6.302
		C51.885,31.598,51.885,30.257,51.08,29.452z M29.314,22.891H13.583c-1.162,0-2.101,0.938-2.101,2.101s0.938,2.1,2.101,2.1h15.731
		c1.162,0,2.101-0.938,2.101-2.1S30.477,22.891,29.314,22.891z M13.583,16.597h21.318c1.162,0,2.1-0.938,2.1-2.101
		s-0.938-2.1-2.1-2.1H13.583c-1.162,0-2.101,0.938-2.101,2.1S12.421,16.597,13.583,16.597z"/>
</g>
</svg>
