<?xml version="1.0" encoding="utf-8"?>
<!-- Generator: Adobe Illustrator 15.0.0, SVG Export Plug-In . SVG Version: 6.00 Build 0)  -->
<!DOCTYPE svg PUBLIC "-//W3C//DTD SVG 1.1//EN" "http://www.w3.org/Graphics/SVG/1.1/DTD/svg11.dtd">
<svg version="1.1" id="Layer_1" xmlns="http://www.w3.org/2000/svg" xmlns:xlink="http://www.w3.org/1999/xlink" x="0px" y="0px"
     width="50px" height="50px" viewBox="0 0 50 50" enable-background="new 0 0 50 50" xml:space="preserve">
<polygon fill="none" stroke="#FFFFFF" stroke-width="3" stroke-miterlimit="10" points="24.999,3.271 36.029,22.37 47.057,41.472 
	24.999,41.472 2.943,41.472 13.971,22.37 "/>
<g>
	<path fill="#FFFFFF" d="M22.397,33.571c0-0.357,0.067-0.696,0.198-1.018c0.132-0.321,0.316-0.599,0.552-0.834
		c0.236-0.237,0.514-0.419,0.834-0.553c0.321-0.132,0.662-0.196,1.019-0.196c0.359,0,0.696,0.064,1.02,0.196
		c0.318,0.134,0.599,0.315,0.835,0.553c0.234,0.235,0.418,0.513,0.551,0.834c0.13,0.321,0.197,0.66,0.197,1.018
		c0,0.359-0.067,0.698-0.197,1.02c-0.133,0.322-0.316,0.599-0.551,0.834c-0.236,0.236-0.517,0.421-0.835,0.552
		c-0.323,0.131-0.661,0.199-1.02,0.199c-0.357,0-0.698-0.068-1.019-0.199c-0.32-0.131-0.599-0.315-0.834-0.552
		c-0.235-0.235-0.42-0.512-0.552-0.834C22.464,34.27,22.397,33.931,22.397,33.571z M27.124,29.385h-4.246v-13.41h4.246V29.385z"/>
</g>
</svg>
