<?xml version="1.0" encoding="utf-8"?>
<!-- Generator: Adobe Illustrator 15.0.0, SVG Export Plug-In . SVG Version: 6.00 Build 0)  -->
<!DOCTYPE svg PUBLIC "-//W3C//DTD SVG 1.1//EN" "http://www.w3.org/Graphics/SVG/1.1/DTD/svg11.dtd">
<svg version="1.1" id="Layer_1" xmlns="http://www.w3.org/2000/svg" xmlns:xlink="http://www.w3.org/1999/xlink" x="0px" y="0px"
     width="100px" height="100px" viewBox="0 0 100 100" enable-background="new 0 0 100 100" xml:space="preserve">
<polygon fill="#4A88C8" points="6.698,25 50,0 93.302,25 93.302,75 50,100 6.698,75 "/>
<g>
	<g>
		<path fill="#FFFFFF" d="M55.108,51.446H44.896v-2.771h10.213V51.446z M60.127,46.261H39.872v-2.772h20.255V46.261z"/>
	</g>
	<path fill="none" stroke="#FFFFFF" stroke-width="3" stroke-miterlimit="10" d="M60.138,35.336H39.86
		c-3.909,0-7.087,3.259-7.087,7.268v7.771c0,4.008,3.178,7.268,7.087,7.268h13.022l8.54,7.021v-7.146
		c3.34-0.628,5.804-3.617,5.804-7.144v-7.771C67.227,38.596,64.045,35.336,60.138,35.336z"/>
</g>
<g>
	<path fill="#FFFFFF" d="M55.108,51.446H44.896v-2.771h10.213V51.446z M60.127,46.261H39.872v-2.772h20.255V46.261z"/>
</g>
<path fill="none" stroke="#FFFFFF" stroke-width="3" stroke-miterlimit="10" d="M60.138,35.336H39.86
	c-3.909,0-7.087,3.259-7.087,7.268v7.771c0,4.008,3.178,7.268,7.087,7.268h13.022l8.54,7.021v-7.146
	c3.34-0.628,5.804-3.617,5.804-7.144v-7.771C67.227,38.596,64.045,35.336,60.138,35.336z"/>
</svg>
