<?xml version="1.0" encoding="utf-8"?>
<!-- Generator: Adobe Illustrator 15.0.0, SVG Export Plug-In . SVG Version: 6.00 Build 0)  -->
<!DOCTYPE svg PUBLIC "-//W3C//DTD SVG 1.1//EN" "http://www.w3.org/Graphics/SVG/1.1/DTD/svg11.dtd">
<svg version="1.1" id="Layer_1" xmlns="http://www.w3.org/2000/svg" xmlns:xlink="http://www.w3.org/1999/xlink" x="0px" y="0px"
     width="100px" height="100px" viewBox="0 0 100 100" enable-background="new 0 0 100 100" xml:space="preserve">
<g>
	<polygon fill="#B1BC38" points="6.699,24.754 50,-0.245 93.302,24.754 93.302,74.755 50,99.755 6.699,74.755 	"/>
	<path fill="#FFFFFF" d="M51.337,35.246v-1.663h1.188c0.738,0,1.337-0.599,1.337-1.336c0-0.739-0.6-1.336-1.337-1.336h-5.049
		c-0.738,0-1.336,0.597-1.336,1.336c0,0.738,0.598,1.336,1.336,1.336h1.188v1.662c-8.588,0.684-15.37,7.887-15.37,16.648
		C33.293,61.104,40.788,68.6,50,68.6c9.213,0,16.706-7.495,16.706-16.707C66.708,43.131,59.927,35.93,51.337,35.246z M50,65.928
		c-7.737,0-14.033-6.297-14.033-14.035S42.263,37.86,50,37.86c7.739,0,14.035,6.296,14.035,14.032
		C64.035,59.63,57.739,65.928,50,65.928z"/>
	<path fill="#FFFFFF" d="M59.27,36.671c0.755,0.46,1.483,0.982,2.163,1.552c0.251,0.209,0.555,0.312,0.857,0.312
		c0.384,0,0.762-0.164,1.026-0.479c0.474-0.566,0.397-1.409-0.168-1.883c-0.782-0.655-1.619-1.254-2.486-1.784
		c-0.629-0.384-1.452-0.186-1.837,0.444C58.441,35.463,58.64,36.286,59.27,36.671z"/>
	<path fill="#FFFFFF" d="M56.028,43.106c-0.608-0.418-1.44-0.264-1.857,0.346l-5.273,7.685c-0.417,0.608-0.263,1.441,0.346,1.859
		c0.232,0.158,0.495,0.234,0.756,0.234c0.426,0,0.843-0.203,1.103-0.581l5.272-7.685C56.793,44.355,56.638,43.523,56.028,43.106z"/>
</g>
</svg>
