<?xml version="1.0" encoding="utf-8"?>
<!-- Generator: Adobe Illustrator 15.0.0, SVG Export Plug-In . SVG Version: 6.00 Build 0)  -->
<!DOCTYPE svg PUBLIC "-//W3C//DTD SVG 1.1//EN" "http://www.w3.org/Graphics/SVG/1.1/DTD/svg11.dtd">
<svg version="1.1" id="Layer_1" xmlns="http://www.w3.org/2000/svg" xmlns:xlink="http://www.w3.org/1999/xlink" x="0px" y="0px"
     width="50px" height="50px" viewBox="0 0 50 50" enable-background="new 0 0 50 50" xml:space="preserve">
<g>
	<path fill="#F4F4FA" d="M21.825,38.431c-1.752-1.754-1.752-4.596,0-6.35l20.511-20.512c1.754-1.752,4.596-1.752,6.35,0.001l0,0
		c1.752,1.752,1.752,4.594,0,6.348L28.174,38.431C26.422,40.183,23.58,40.183,21.825,38.431L21.825,38.431z"/>
	<path fill="#F4F4FA" d="M28.174,38.431c-1.752,1.752-4.594,1.752-6.349,0L1.314,17.919c-1.751-1.754-1.751-4.596,0-6.35l0,0
		c1.754-1.752,4.598-1.752,6.35,0l20.51,20.512C29.927,33.835,29.927,36.677,28.174,38.431L28.174,38.431z"/>
</g>
</svg>
