<?xml version="1.0" encoding="utf-8"?>
<!-- Generator: Adobe Illustrator 15.0.0, SVG Export Plug-In . SVG Version: 6.00 Build 0)  -->
<!DOCTYPE svg PUBLIC "-//W3C//DTD SVG 1.1//EN" "http://www.w3.org/Graphics/SVG/1.1/DTD/svg11.dtd">
<svg version="1.1" id="Layer_1" xmlns="http://www.w3.org/2000/svg" xmlns:xlink="http://www.w3.org/1999/xlink" x="0px" y="0px"
     width="50px" height="50px" viewBox="0 0 50 50" enable-background="new 0 0 50 50" xml:space="preserve">
<g>
	<path fill="#B4B9D5" d="M46.556,41.517c-1.532-8.294-8.74-14.354-17.163-14.354h-8.739c-8.614,0-15.884,6.252-17.288,14.737l0,0
		C2.663,46.175,5.98,50,10.255,50h29.473c4.338,0,7.656-3.955,6.89-8.227L46.556,41.517z"/>
	<path fill="#B4B9D5" d="M16.059,20.338c4.978,4.974,13.016,5.102,18.119,0.253l0.128-0.126c4.403-4.211,4.849-11.037,0.956-15.758
		l0,0c-5.292-6.38-15.12-6.253-20.221,0.253l0,0c-3.574,4.592-3.191,11.164,0.956,15.312L16.059,20.338z"/>
</g>
</svg>
