<?xml version="1.0" encoding="utf-8"?>
<!-- Generator: Adobe Illustrator 15.0.0, SVG Export Plug-In . SVG Version: 6.00 Build 0)  -->
<!DOCTYPE svg PUBLIC "-//W3C//DTD SVG 1.1//EN" "http://www.w3.org/Graphics/SVG/1.1/DTD/svg11.dtd">
<svg version="1.1" id="Layer_1" xmlns="http://www.w3.org/2000/svg" xmlns:xlink="http://www.w3.org/1999/xlink" x="0px" y="0px"
     width="50px" height="50px" viewBox="0 0 50 50" enable-background="new 0 0 50 50" xml:space="preserve">
<g>
	<path fill="#A8ACCB" d="M46.553,41.515c-1.53-8.294-8.739-14.353-17.16-14.353h-8.738c-8.612,0-15.885,6.251-17.288,14.736l0,0
		C2.665,46.171,5.983,50,10.257,50h29.47c4.338,0,7.656-3.957,6.89-8.229L46.553,41.515z"/>
	<path fill="#A8ACCB" d="M16.061,20.335c4.977,4.977,13.012,5.103,18.117,0.255l0.128-0.128c4.402-4.208,4.848-11.034,0.957-15.757
		l0,0c-5.296-6.38-15.118-6.252-20.222,0.254l0,0c-3.572,4.595-3.19,11.166,0.956,15.312L16.061,20.335z"/>
</g>
</svg>
