<?xml version="1.0" encoding="utf-8"?>
<!-- Generator: Adobe Illustrator 15.0.0, SVG Export Plug-In . SVG Version: 6.00 Build 0)  -->
<!DOCTYPE svg PUBLIC "-//W3C//DTD SVG 1.1//EN" "http://www.w3.org/Graphics/SVG/1.1/DTD/svg11.dtd">
<svg version="1.1" id="Layer_1" xmlns="http://www.w3.org/2000/svg" xmlns:xlink="http://www.w3.org/1999/xlink" x="0px" y="0px"
     width="50px" height="50px" viewBox="0 0 50 50" enable-background="new 0 0 50 50" xml:space="preserve">
<g>
	<path fill="#FFFFFF" d="M26.773,5.752V3.546h1.576c0.979,0,1.771-0.794,1.771-1.773c0-0.98-0.797-1.772-1.771-1.772h-6.702
		c-0.979,0-1.772,0.792-1.772,1.772c0,0.981,0.793,1.773,1.772,1.773h1.574v2.205C11.836,6.658,2.836,16.212,2.836,27.836
		C2.836,40.057,12.778,50,25,50c12.221,0,22.164-9.943,22.164-22.164C47.164,16.212,38.168,6.659,26.773,5.752z M25,46.452
		c-10.264,0-18.618-8.351-18.618-18.616C6.382,17.571,14.736,9.221,25,9.221c10.268,0,18.619,8.352,18.619,18.615
		C43.619,38.104,35.268,46.452,25,46.452z"/>
	<path fill="#FFFFFF" d="M37.298,7.644c1,0.609,1.966,1.304,2.867,2.06c0.334,0.277,0.739,0.414,1.14,0.414
		c0.508,0,1.01-0.215,1.361-0.635c0.627-0.75,0.527-1.869-0.225-2.499c-1.037-0.868-2.147-1.664-3.297-2.366
		c-0.836-0.51-1.927-0.247-2.438,0.59C36.198,6.041,36.462,7.134,37.298,7.644z"/>
	<path fill="#FFFFFF" d="M32.998,16.18c-0.809-0.553-1.913-0.348-2.463,0.459L23.54,26.836c-0.553,0.807-0.35,1.91,0.459,2.463
		c0.308,0.211,0.655,0.312,1.002,0.312c0.565,0,1.119-0.271,1.462-0.771l6.993-10.196C34.012,17.838,33.805,16.732,32.998,16.18z"/>
</g>
</svg>
