<?xml version="1.0" encoding="utf-8"?>
<!-- Generator: Adobe Illustrator 15.0.0, SVG Export Plug-In . SVG Version: 6.00 Build 0)  -->
<!DOCTYPE svg PUBLIC "-//W3C//DTD SVG 1.1//EN" "http://www.w3.org/Graphics/SVG/1.1/DTD/svg11.dtd">
<svg version="1.1" id="Layer_1" xmlns="http://www.w3.org/2000/svg" xmlns:xlink="http://www.w3.org/1999/xlink" x="0px" y="0px"
     width="50px" height="50px" viewBox="0 0 50 50" enable-background="new 0 0 50 50" xml:space="preserve">
<g>
	<path fill="#B4B9D5" d="M49.688,19.243l-5.777-4.041V2.797c0-0.41-0.334-0.743-0.749-0.743h-5.703
		c-0.412,0-0.741,0.333-0.741,0.743v7.369L25.421,2.262c-0.25-0.179-0.596-0.179-0.847,0L0.315,19.243
		c-0.161,0.116-0.273,0.282-0.305,0.483c-0.033,0.192,0.009,0.391,0.122,0.554l3.303,4.714c0.148,0.208,0.377,0.32,0.613,0.32
		c0.145,0,0.295-0.04,0.428-0.136l1.448-1.013v23.035c0,0.41,0.337,0.746,0.749,0.746h12.753c0.41,0,0.744-0.336,0.744-0.746V30.01
		h9.657v17.189c0,0.41,0.338,0.746,0.748,0.746h12.657c0.41,0,0.741-0.336,0.741-0.746V24.091l1.554,1.086
		c0.34,0.239,0.804,0.158,1.037-0.184l3.301-4.712c0.116-0.163,0.159-0.364,0.124-0.554C49.958,19.524,49.844,19.358,49.688,19.243z
		"/>
</g>
</svg>
