<?xml version="1.0" encoding="utf-8"?>
<!-- Generator: Adobe Illustrator 15.0.0, SVG Export Plug-In . SVG Version: 6.00 Build 0)  -->
<!DOCTYPE svg PUBLIC "-//W3C//DTD SVG 1.1//EN" "http://www.w3.org/Graphics/SVG/1.1/DTD/svg11.dtd">
<svg version="1.1" id="Layer_1" xmlns="http://www.w3.org/2000/svg" xmlns:xlink="http://www.w3.org/1999/xlink" x="0px" y="0px"
     width="60.834px" height="50px" viewBox="0 0 60.834 50" enable-background="new 0 0 60.834 50" xml:space="preserve">
<polygon fill="none" stroke="#FFFFFF" stroke-width="3" stroke-miterlimit="10" points="25.359,3.5 36.509,22.808 47.657,42.118 
	25.359,42.118 3.065,42.118 14.211,22.808 "/>
<g>
	<text transform="matrix(1 0 0 1 19.0117 36.5889)" fill="#FFFFFF" font-family="'Avenir-Black'" font-size="28.5984">!</text>
</g>
<g>
	<path fill="#FFFFFF" d="M46.073,8.136c-7.566,0-13.694,6.131-13.694,13.696c0,7.564,6.128,13.697,13.694,13.697
		s13.695-6.133,13.695-13.697C59.769,14.267,53.64,8.136,46.073,8.136z M44.138,28.288l-6.455-6.456l2.581-2.583l3.874,3.875
		l7.745-7.747l2.583,2.583L44.138,28.288z"/>
</g>
</svg>
