<?xml version="1.0" encoding="utf-8"?>
<!-- Generator: Adobe Illustrator 15.0.0, SVG Export Plug-In . SVG Version: 6.00 Build 0)  -->
<!DOCTYPE svg PUBLIC "-//W3C//DTD SVG 1.1//EN" "http://www.w3.org/Graphics/SVG/1.1/DTD/svg11.dtd">
<svg version="1.1" id="Layer_1" xmlns="http://www.w3.org/2000/svg" xmlns:xlink="http://www.w3.org/1999/xlink" x="0px" y="0px"
     width="63.166px" height="50px" viewBox="0 0 63.166 50" enable-background="new 0 0 63.166 50" xml:space="preserve">
<g>
	<g>
		<g>
			<path fill="#FFFFFF" d="M36.928,7.561c1.001,0.61,1.967,1.303,2.869,2.06c0.333,0.277,0.735,0.412,1.138,0.412
				c0.508,0,1.012-0.216,1.361-0.635c0.628-0.75,0.527-1.869-0.224-2.497c-1.036-0.87-2.147-1.665-3.298-2.368
				c-0.836-0.509-1.927-0.245-2.438,0.59C35.828,5.958,36.092,7.049,36.928,7.561z"/>
			<path fill="#FFFFFF" d="M32.628,16.097c-0.809-0.555-1.912-0.349-2.466,0.458l-6.995,10.196
				c-0.553,0.807-0.349,1.911,0.459,2.465c0.308,0.21,0.656,0.312,1.003,0.312c0.564,0,1.119-0.27,1.463-0.771l6.995-10.195
				C33.643,17.755,33.435,16.65,32.628,16.097z"/>
		</g>
	</g>
	<g>
		<path fill="#FFFFFF" d="M38.425,40.214c-3.408,3.771-8.321,6.158-13.795,6.158c-10.264,0-18.617-8.353-18.617-18.618
			c0-10.265,8.354-18.617,18.617-18.617c7.651,0,14.232,4.641,17.092,11.25c0.193-0.015,0.378-0.057,0.574-0.057h3.193
			C42.617,12.29,35.243,6.373,26.403,5.669V3.463h1.576c0.979,0,1.772-0.794,1.772-1.773c0-0.979-0.795-1.772-1.772-1.772h-6.7
			c-0.979,0-1.771,0.793-1.771,1.772c0,0.98,0.793,1.773,1.771,1.773h1.576v2.205C11.463,6.575,2.466,16.13,2.466,27.754
			c0,12.221,9.942,22.164,22.164,22.164c7.104,0,13.42-3.373,17.478-8.584C40.753,41.298,39.497,40.894,38.425,40.214z"/>
		<path fill="#FFFFFF" d="M46.362,16.012c-7.922,0-14.34,6.417-14.34,14.338c0,7.92,6.418,14.34,14.34,14.34
			c7.921,0,14.338-6.42,14.338-14.34C60.7,22.429,54.283,16.012,46.362,16.012z M44.335,37.109l-6.76-6.759l2.703-2.704l4.057,4.057
			l8.11-8.112l2.703,2.705L44.335,37.109z"/>
	</g>
</g>
</svg>
